<svg width="1024" height="1024" viewBox="0 0 1024 1024" fill="none" xmlns="http://www.w3.org/2000/svg">
<rect width="1024" height="1024" fill="#151515"/>
<path d="M788.318 298.333C788.318 395.667 853.333 387.556 853.333 460.556V760.667C853.333 799.388 837.921 836.524 810.487 863.904C783.053 891.285 745.845 906.667 707.048 906.667H512H316.952C278.155 906.667 240.947 891.285 213.513 863.904C186.079 836.524 170.667 799.388 170.667 760.667V460.556C170.667 387.556 235.683 395.667 235.683 298.333M804.572 128H219.429C215.118 128 210.984 129.709 207.935 132.751C204.887 135.794 203.175 139.92 203.175 144.222V241.556C203.175 245.858 204.887 249.984 207.935 253.026C210.984 256.069 215.118 257.778 219.429 257.778H804.572C808.882 257.778 813.017 256.069 816.065 253.026C819.113 249.984 820.826 245.858 820.826 241.556V144.222C820.826 139.92 819.113 135.794 816.065 132.751C813.017 129.709 808.882 128 804.572 128Z" stroke="#D9E6F2" stroke-width="35.2" stroke-linecap="round" stroke-linejoin="round"/>
<path d="M333.422 587.289L429.867 683.733C434.43 688.296 436.711 694.104 436.711 701.156C436.711 708.207 434.43 714.015 429.867 718.578C425.304 723.141 419.496 725.422 412.444 725.422C405.392 725.422 399.585 723.141 395.022 718.578L280.533 604.089C278.044 601.6 276.277 598.904 275.232 596C274.187 593.096 273.681 589.985 273.714 586.667C273.747 583.348 274.27 580.237 275.282 577.333C276.294 574.43 278.053 571.733 280.558 569.244L395.047 454.756C400.025 449.778 405.94 447.289 412.793 447.289C419.646 447.289 425.552 449.778 430.514 454.756C435.475 459.733 437.964 465.649 437.98 472.501C437.997 479.354 435.508 485.261 430.514 490.222L333.422 587.289ZM690.578 586.044L594.133 489.6C589.57 485.037 587.289 479.23 587.289 472.178C587.289 465.126 589.57 459.319 594.133 454.756C598.696 450.193 604.504 447.911 611.555 447.911C618.607 447.911 624.415 450.193 628.978 454.756L743.467 569.244C745.955 571.733 747.723 574.43 748.768 577.333C749.813 580.237 750.328 583.348 750.311 586.667C750.294 589.985 749.78 593.096 748.768 596C747.756 598.904 745.989 601.6 743.467 604.089L628.978 718.578C624 723.556 618.192 725.945 611.555 725.746C604.918 725.547 599.111 722.95 594.133 717.956C589.155 712.961 586.667 707.054 586.667 700.235C586.667 693.415 589.155 687.5 594.133 682.489L690.578 586.044Z" fill="#D9E6F2"/>
</svg>
