<svg width="44" height="44" viewBox="0 0 44 44" fill="none" xmlns="http://www.w3.org/2000/svg">
<path d="M33.8729 12.819C33.8729 17.0013 36.6666 16.6528 36.6666 19.7895V32.6849C36.6666 34.3487 36.0043 35.9444 34.8255 37.1209C33.6467 38.2974 32.0479 38.9583 30.3809 38.9583H21.9999H13.619C11.9519 38.9583 10.3531 38.2974 9.1743 37.1209C7.9955 35.9444 7.33325 34.3487 7.33325 32.6849V19.7895C7.33325 16.6528 10.1269 17.0013 10.1269 12.819M34.5713 5.5H9.42849C9.24326 5.5 9.06561 5.57344 8.93464 5.70416C8.80366 5.83488 8.73008 6.01218 8.73008 6.19705V10.3793C8.73008 10.5642 8.80366 10.7415 8.93464 10.8722C9.06561 11.003 9.24326 11.0764 9.42849 11.0764H34.5713C34.7566 11.0764 34.9342 11.003 35.0652 10.8722C35.1962 10.7415 35.2698 10.5642 35.2698 10.3793V6.19705C35.2698 6.01218 35.1962 5.83488 35.0652 5.70416C34.9342 5.57344 34.7566 5.5 34.5713 5.5Z" stroke="white" stroke-width="3.5" stroke-linecap="round" stroke-linejoin="round"/>
<path d="M26.2776 18.946C26.652 18.946 26.9807 19.0701 27.2385 19.3278L32.1575 24.2477C32.2912 24.3815 32.3935 24.534 32.4553 24.7057C32.513 24.8659 32.5411 25.0346 32.5403 25.2097C32.5394 25.3826 32.5124 25.5494 32.4573 25.7077C32.3965 25.8819 32.2925 26.0363 32.1565 26.1706L32.1555 26.1696L27.2385 31.0886C26.9701 31.357 26.642 31.4952 26.2688 31.4841C25.902 31.4731 25.5809 31.3264 25.3167 31.0612C25.049 30.7926 24.9085 30.4638 24.9084 30.0886C24.9084 29.7132 25.0492 29.3832 25.3167 29.114L29.2483 25.1813L25.3167 21.2497C25.0589 20.9919 24.9348 20.6632 24.9348 20.2888C24.9348 19.9144 25.0589 19.5856 25.3167 19.3278C25.5744 19.07 25.9032 18.946 26.2776 18.946ZM17.7375 18.9196C18.1138 18.9197 18.4434 19.0602 18.7112 19.3288C18.9785 19.5971 19.1185 19.9267 19.1194 20.3024C19.1202 20.6792 18.9798 21.0092 18.7102 21.277L18.7092 21.2761L14.7502 25.2341L18.6829 29.1667C18.9407 29.4245 19.0647 29.7532 19.0647 30.1276C19.0647 30.5021 18.9407 30.8307 18.6829 31.0886C18.425 31.3464 18.0964 31.4704 17.7219 31.4704C17.3476 31.4704 17.0188 31.3463 16.761 31.0886L11.842 26.1686C11.7083 26.0349 11.606 25.8824 11.5442 25.7106C11.4864 25.5501 11.4595 25.381 11.4612 25.2057C11.4629 25.0332 11.4902 24.8666 11.5452 24.7087C11.6057 24.535 11.7088 24.381 11.844 24.2468L16.7629 19.3278C17.0313 19.0596 17.3613 18.9196 17.7375 18.9196Z" fill="white" stroke="white" stroke-width="0.6"/>
</svg>
